<svg width="24" height="24" viewBox="0 0 24 24" fill="none" xmlns="http://www.w3.org/2000/svg">
<path d="M21.8289 0.950684H2.17139C1.84815 0.950684 1.53816 1.07909 1.3096 1.30765C1.08104 1.53621 0.952637 1.8462 0.952637 2.16943V21.8288C0.952637 22.152 1.08104 22.462 1.3096 22.6906C1.53816 22.9192 1.84815 23.0476 2.17139 23.0476H12.7501V14.4919H9.87389V11.1563H12.7501V8.69631C12.7501 5.84256 14.4939 4.28818 17.0401 4.28818C17.8994 4.28512 18.7582 4.32893 19.6126 4.41943V7.40256H17.852C16.4664 7.40256 16.1983 8.06068 16.1983 9.02631V11.1563H19.5001L19.0708 14.4919H16.1983V23.0494H21.8233C22.1463 23.0489 22.456 22.9204 22.6845 22.6919C22.913 22.4635 23.0415 22.1538 23.042 21.8307V2.17131C23.0425 1.84872 22.9151 1.5391 22.6877 1.31029C22.4603 1.08149 22.1515 0.952172 21.8289 0.950684Z" fill="#40E0D0"/>
</svg>
