<svg width="22" height="22" viewBox="0 0 22 22" fill="none" xmlns="http://www.w3.org/2000/svg">
<path fill-rule="evenodd" clip-rule="evenodd" d="M6.465 0.066C7.638 0.012 8.012 0 11 0C13.988 0 14.362 0.013 15.534 0.066C16.706 0.119 17.506 0.306 18.206 0.577C18.939 0.854 19.604 1.287 20.154 1.847C20.714 2.396 21.146 3.06 21.422 3.794C21.694 4.494 21.88 5.294 21.934 6.464C21.988 7.639 22 8.013 22 11C22 13.988 21.987 14.362 21.934 15.535C21.881 16.705 21.694 17.505 21.422 18.205C21.146 18.9391 20.7133 19.6042 20.154 20.154C19.604 20.714 18.939 21.146 18.206 21.422C17.506 21.694 16.706 21.88 15.536 21.934C14.362 21.988 13.988 22 11 22C8.012 22 7.638 21.987 6.465 21.934C5.295 21.881 4.495 21.694 3.795 21.422C3.06092 21.146 2.39582 20.7133 1.846 20.154C1.28638 19.6047 0.853315 18.9399 0.577 18.206C0.306 17.506 0.12 16.706 0.066 15.536C0.012 14.361 0 13.987 0 11C0 8.012 0.013 7.638 0.066 6.466C0.119 5.294 0.306 4.494 0.577 3.794C0.853723 3.06008 1.28712 2.39531 1.847 1.846C2.39604 1.2865 3.06047 0.853443 3.794 0.577C4.494 0.306 5.295 0.12 6.465 0.066ZM15.444 2.046C14.284 1.993 13.936 1.982 10.999 1.982C8.062 1.982 7.714 1.993 6.554 2.046C5.481 2.095 4.899 2.274 4.511 2.425C3.998 2.625 3.631 2.862 3.246 3.247C2.88104 3.60205 2.60018 4.03428 2.424 4.512C2.273 4.9 2.094 5.482 2.045 6.555C1.992 7.715 1.981 8.063 1.981 11C1.981 13.937 1.992 14.285 2.045 15.445C2.094 16.518 2.273 17.1 2.424 17.488C2.6 17.965 2.881 18.398 3.246 18.753C3.601 19.118 4.034 19.399 4.511 19.575C4.899 19.726 5.481 19.905 6.554 19.954C7.714 20.007 8.061 20.018 10.999 20.018C13.937 20.018 14.284 20.007 15.444 19.954C16.517 19.905 17.099 19.726 17.487 19.575C18 19.375 18.367 19.138 18.752 18.753C19.117 18.398 19.398 17.965 19.574 17.488C19.725 17.1 19.904 16.518 19.953 15.445C20.006 14.285 20.017 13.937 20.017 11C20.017 8.063 20.006 7.715 19.953 6.555C19.904 5.482 19.725 4.9 19.574 4.512C19.374 3.999 19.137 3.632 18.752 3.247C18.3969 2.88207 17.9647 2.60121 17.487 2.425C17.099 2.274 16.517 2.095 15.444 2.046ZM9.594 14.391C10.3787 14.7176 11.2524 14.7617 12.0659 14.5157C12.8795 14.2697 13.5824 13.7489 14.0546 13.0422C14.5268 12.3356 14.7391 11.4869 14.655 10.6411C14.571 9.79534 14.196 9.00497 13.594 8.405C13.2102 8.02148 12.7462 7.72781 12.2353 7.54515C11.7245 7.36248 11.1794 7.29536 10.6395 7.34862C10.0996 7.40187 9.57815 7.57418 9.1128 7.85313C8.64746 8.13208 8.24974 8.51074 7.9483 8.96185C7.64686 9.41296 7.44919 9.92529 7.36952 10.462C7.28984 10.9986 7.33015 11.5463 7.48754 12.0655C7.64493 12.5847 7.91548 13.0626 8.27972 13.4647C8.64396 13.8668 9.09282 14.1832 9.594 14.391ZM7.002 7.002C7.52702 6.47697 8.15032 6.0605 8.8363 5.77636C9.52228 5.49222 10.2575 5.34597 11 5.34597C11.7425 5.34597 12.4777 5.49222 13.1637 5.77636C13.8497 6.0605 14.473 6.47697 14.998 7.002C15.523 7.52702 15.9395 8.15032 16.2236 8.8363C16.5078 9.52228 16.654 10.2575 16.654 11C16.654 11.7425 16.5078 12.4777 16.2236 13.1637C15.9395 13.8497 15.523 14.473 14.998 14.998C13.9377 16.0583 12.4995 16.654 11 16.654C9.50046 16.654 8.06234 16.0583 7.002 14.998C5.94166 13.9377 5.34597 12.4995 5.34597 11C5.34597 9.50046 5.94166 8.06234 7.002 7.002ZM17.908 6.188C18.0381 6.06527 18.1423 5.91768 18.2143 5.75397C18.2863 5.59027 18.3248 5.41377 18.3274 5.23493C18.33 5.05609 18.2967 4.87855 18.2295 4.71281C18.1622 4.54707 18.0624 4.39651 17.936 4.27004C17.8095 4.14357 17.6589 4.04376 17.4932 3.97652C17.3275 3.90928 17.1499 3.87598 16.9711 3.87858C16.7922 3.88119 16.6157 3.91965 16.452 3.9917C16.2883 4.06374 16.1407 4.1679 16.018 4.298C15.7793 4.55103 15.6486 4.88712 15.6537 5.23493C15.6588 5.58274 15.7992 5.91488 16.0452 6.16084C16.2911 6.40681 16.6233 6.54723 16.9711 6.5523C17.3189 6.55737 17.655 6.42669 17.908 6.188Z" fill="#40E0D0"/>
</svg>
