<svg width="26" height="30" viewBox="0 0 26 30" fill="none" xmlns="http://www.w3.org/2000/svg">
<path d="M8.00002 7C8.00002 5.67392 8.52681 4.40215 9.46449 3.46447C10.4022 2.52678 11.6739 2 13 2C14.3261 2 15.5979 2.52678 16.5356 3.46447C17.4732 4.40215 18 5.67392 18 7V8H20V7C20 5.14348 19.2625 3.36301 17.9498 2.05025C16.637 0.737498 14.8565 0 13 0C11.1435 0 9.36303 0.737498 8.05028 2.05025C6.73752 3.36301 6.00002 5.14348 6.00002 7V8H8.00002V7ZM1.80802 12.668C1.88972 11.9343 2.23908 11.2565 2.78926 10.7642C3.33943 10.272 4.05179 9.9999 4.79002 10H21.21C21.9479 10.0004 22.6598 10.2727 23.2095 10.7649C23.7593 11.2571 24.1084 11.9346 24.19 12.668L25.748 26.668C25.7947 27.0874 25.7524 27.512 25.6238 27.9139C25.4953 28.3159 25.2834 28.6862 25.0019 29.0007C24.7205 29.3151 24.3759 29.5667 23.9906 29.7389C23.6053 29.9111 23.188 30.0001 22.766 30H3.23402C2.81218 29.9998 2.39512 29.9106 2.01008 29.7383C1.62504 29.5659 1.28067 29.3144 0.999451 28.9999C0.718233 28.6855 0.50649 28.3153 0.378045 27.9135C0.249599 27.5116 0.207339 27.0873 0.254023 26.668L1.80802 12.668Z" fill="#262626"/>
</svg>
