<svg width="28" height="30" viewBox="0 0 28 30" fill="none" xmlns="http://www.w3.org/2000/svg">
<path d="M0 1C0 0.734784 0.0983361 0.48043 0.273375 0.292893C0.448415 0.105357 0.685819 0 0.933362 0H3.73345C3.94165 6.1623e-05 4.14385 0.0747014 4.3079 0.212049C4.47195 0.349398 4.58843 0.541568 4.63881 0.758L5.39483 4H27.0675C27.2046 4.00014 27.3399 4.03261 27.4639 4.0951C27.5879 4.1576 27.6976 4.24859 27.7851 4.36161C27.8725 4.47463 27.9357 4.6069 27.9701 4.74904C28.0045 4.89117 28.0093 5.03967 27.9841 5.184L25.184 21.184C25.1439 21.4132 25.0304 21.6201 24.8631 21.7691C24.6957 21.9181 24.485 21.9998 24.2674 22H7.4669C7.2493 21.9998 7.03861 21.9181 6.87125 21.7691C6.70389 21.6201 6.59037 21.4132 6.55034 21.184L3.75212 5.214L3.00543 2H0.933362C0.685819 2 0.448415 1.89464 0.273375 1.70711C0.0983361 1.51957 0 1.26522 0 1ZM9.33362 22C8.34345 22 7.39383 22.4214 6.69367 23.1716C5.99352 23.9217 5.60017 24.9391 5.60017 26C5.60017 27.0609 5.99352 28.0783 6.69367 28.8284C7.39383 29.5786 8.34345 30 9.33362 30C10.3238 30 11.2734 29.5786 11.9736 28.8284C12.6737 28.0783 13.0671 27.0609 13.0671 26C13.0671 24.9391 12.6737 23.9217 11.9736 23.1716C11.2734 22.4214 10.3238 22 9.33362 22ZM22.4007 22C21.4105 22 20.4609 22.4214 19.7607 23.1716C19.0606 23.9217 18.6672 24.9391 18.6672 26C18.6672 27.0609 19.0606 28.0783 19.7607 28.8284C20.4609 29.5786 21.4105 30 22.4007 30C23.3909 30 24.3405 29.5786 25.0406 28.8284C25.7408 28.0783 26.1341 27.0609 26.1341 26C26.1341 24.9391 25.7408 23.9217 25.0406 23.1716C24.3405 22.4214 23.3909 22 22.4007 22ZM9.33362 24C9.82871 24 10.3035 24.2107 10.6536 24.5858C11.0037 24.9609 11.2003 25.4696 11.2003 26C11.2003 26.5304 11.0037 27.0391 10.6536 27.4142C10.3035 27.7893 9.82871 28 9.33362 28C8.83854 28 8.36373 27.7893 8.01365 27.4142C7.66357 27.0391 7.4669 26.5304 7.4669 26C7.4669 25.4696 7.66357 24.9609 8.01365 24.5858C8.36373 24.2107 8.83854 24 9.33362 24ZM22.4007 24C22.8958 24 23.3706 24.2107 23.7207 24.5858C24.0707 24.9609 24.2674 25.4696 24.2674 26C24.2674 26.5304 24.0707 27.0391 23.7207 27.4142C23.3706 27.7893 22.8958 28 22.4007 28C21.9056 28 21.4308 27.7893 21.0807 27.4142C20.7306 27.0391 20.534 26.5304 20.534 26C20.534 25.4696 20.7306 24.9609 21.0807 24.5858C21.4308 24.2107 21.9056 24 22.4007 24Z" fill="#262626"/>
</svg>
