<svg width="46" height="46" viewBox="0 0 46 46" fill="none" xmlns="http://www.w3.org/2000/svg">
<path d="M2.375 26.75C1.87772 26.75 1.40081 26.9475 1.04918 27.2992C0.697544 27.6508 0.5 28.1277 0.5 28.625V43.6212C0.5 44.1185 0.697544 44.5954 1.04918 44.9471C1.40081 45.2987 1.87772 45.4962 2.375 45.4962H17.375C17.8723 45.4962 18.3492 45.2987 18.7008 44.9471C19.0525 44.5954 19.25 44.1185 19.25 43.6212V28.625C19.25 28.1277 19.0525 27.6508 18.7008 27.2992C18.3492 26.9475 17.8723 26.75 17.375 26.75H2.375ZM28.625 26.75C28.1277 26.75 27.6508 26.9475 27.2992 27.2992C26.9475 27.6508 26.75 28.1277 26.75 28.625V43.6212C26.75 44.1185 26.9475 44.5954 27.2992 44.9471C27.6508 45.2987 28.1277 45.4962 28.625 45.4962H43.6213C44.1185 45.4962 44.5954 45.2987 44.9471 44.9471C45.2987 44.5954 45.4963 44.1185 45.4963 43.6212V28.625C45.4963 28.1277 45.2987 27.6508 44.9471 27.2992C44.5954 26.9475 44.1185 26.75 43.6213 26.75H28.625ZM2.375 0.499992C1.87772 0.499992 1.40081 0.697533 1.04918 1.04916C0.697544 1.40079 0.5 1.87771 0.5 2.37499V17.375C0.5 17.8723 0.697544 18.3492 1.04918 18.7008C1.40081 19.0525 1.87772 19.25 2.375 19.25H17.375C17.8723 19.25 18.3492 19.0525 18.7008 18.7008C19.0525 18.3492 19.25 17.8723 19.25 17.375V2.37499C19.25 1.87771 19.0525 1.40079 18.7008 1.04916C18.3492 0.697533 17.8723 0.499992 17.375 0.499992H2.375ZM28.625 0.499992C28.1277 0.499992 27.6508 0.697533 27.2992 1.04916C26.9475 1.40079 26.75 1.87771 26.75 2.37499V17.375C26.75 17.8723 26.9475 18.3492 27.2992 18.7008C27.6508 19.0525 28.1277 19.25 28.625 19.25H43.6213C44.1185 19.25 44.5954 19.0525 44.9471 18.7008C45.2987 18.3492 45.4963 17.8723 45.4963 17.375V2.37499C45.4963 1.87771 45.2987 1.40079 44.9471 1.04916C44.5954 0.697533 44.1185 0.499992 43.6213 0.499992H28.625Z" fill="#262626"/>
</svg>
