<svg width="40" height="40" viewBox="0 0 40 40" fill="none" xmlns="http://www.w3.org/2000/svg">
<path d="M35.8848 30.5182L29.7015 24.3848C32.1017 21.3922 33.264 17.5937 32.9495 13.7703C32.635 9.947 30.8676 6.38947 28.0107 3.82924C25.1538 1.26901 21.4245 -0.0993157 17.5897 0.00561827C13.7549 0.110552 10.106 1.68077 7.3934 4.3934C4.68077 7.10604 3.11055 10.7549 3.00562 14.5897C2.90068 18.4245 4.26901 22.1538 6.82924 25.0107C9.38947 27.8676 12.947 29.635 16.7703 29.9495C20.5937 30.264 24.3922 29.1017 27.3848 26.7015L33.5182 32.8348C33.6731 32.9911 33.8574 33.115 34.0605 33.1997C34.2636 33.2843 34.4815 33.3278 34.7015 33.3278C34.9215 33.3278 35.1394 33.2843 35.3425 33.1997C35.5456 33.115 35.7299 32.9911 35.8848 32.8348C36.1852 32.5241 36.3531 32.1087 36.3531 31.6765C36.3531 31.2443 36.1852 30.8289 35.8848 30.5182ZM18.0348 26.7015C15.7274 26.7015 13.4718 26.0173 11.5532 24.7353C9.63461 23.4534 8.13926 21.6313 7.25624 19.4995C6.37322 17.3677 6.14218 15.0219 6.59234 12.7588C7.0425 10.4957 8.15364 8.41687 9.78525 6.78526C11.4169 5.15364 13.4957 4.0425 15.7588 3.59234C18.0219 3.14218 20.3677 3.37322 22.4995 4.25624C24.6313 5.13926 26.4534 6.63461 27.7353 8.55318C29.0173 10.4718 29.7015 12.7274 29.7015 15.0348C29.7015 18.129 28.4723 21.0965 26.2844 23.2844C24.0965 25.4723 21.129 26.7015 18.0348 26.7015Z" fill="#EEEEEE"/>
</svg>
