<svg width="12" height="14" viewBox="0 0 12 14" fill="none" xmlns="http://www.w3.org/2000/svg">
<path fill-rule="evenodd" clip-rule="evenodd" d="M6 2C5.46957 2 4.96086 2.21071 4.58579 2.58579C4.21071 2.96086 4 3.46957 4 4V5H8V4C8 3.46957 7.78929 2.96086 7.41421 2.58579C7.03914 2.21071 6.53043 2 6 2ZM2 4V5C1.60218 5 1.22064 5.15804 0.93934 5.43934C0.658035 5.72064 0.5 6.10218 0.5 6.5V12.5C0.5 12.8978 0.658035 13.2794 0.93934 13.5607C1.22064 13.842 1.60218 14 2 14H10C10.3978 14 10.7794 13.842 11.0607 13.5607C11.342 13.2794 11.5 12.8978 11.5 12.5V6.5C11.5 6.10218 11.342 5.72064 11.0607 5.43934C10.7794 5.15804 10.3978 5 10 5V4C10 2.93913 9.57857 1.92172 8.82843 1.17157C8.07828 0.421427 7.06087 0 6 0C4.93913 0 3.92172 0.421427 3.17157 1.17157C2.42143 1.92172 2 2.93913 2 4ZM6 10.75C6.16415 10.75 6.3267 10.7177 6.47835 10.6548C6.63001 10.592 6.76781 10.5 6.88388 10.3839C6.99996 10.2678 7.09203 10.13 7.15485 9.97835C7.21767 9.8267 7.25 9.66415 7.25 9.5C7.25 9.33585 7.21767 9.1733 7.15485 9.02165C7.09203 8.86999 6.99996 8.73219 6.88388 8.61612C6.76781 8.50004 6.63001 8.40797 6.47835 8.34515C6.3267 8.28233 6.16415 8.25 6 8.25C5.66848 8.25 5.35054 8.3817 5.11612 8.61612C4.8817 8.85054 4.75 9.16848 4.75 9.5C4.75 9.83152 4.8817 10.1495 5.11612 10.3839C5.35054 10.6183 5.66848 10.75 6 10.75Z" fill="#F79E1B"/>
</svg>
